<svg xmlns="http://www.w3.org/2000/svg" width="28" height="32"><path d="M1002.5 4200.5h-3a1.5 1.5 0 0 1-1.5-1.5v-6a1.5 1.5 0 0 1 1.5-1.5h3a1.5 1.5 0 0 1 1.5 1.5v6a1.5 1.5 0 0 1-1.5 1.5Zm-3-15a1.5 1.5 0 0 1 3 0v4.5h-3v-4.5Zm-8 23h-3a1.5 1.5 0 0 1-1.5-1.5v-6a1.5 1.5 0 0 1 1.5-1.5h3a1.5 1.5 0 0 1 1.5 1.5v6a1.5 1.5 0 0 1-1.5 1.5Zm-3-23a1.5 1.5 0 0 1 3 0v12.5h-3v-12.5Zm-8 19h-3a1.5 1.5 0 0 1-1.5-1.5v-6a1.5 1.5 0 0 1 1.5-1.5h3a1.5 1.5 0 0 1 1.5 1.5v6a1.5 1.5 0 0 1-1.5 1.5Zm-3-19a1.5 1.5 0 0 1 3 0v8.5h-3v-8.5Zm3 29a1.5 1.5 0 0 1-3 0v-8.5h3v8.5Zm11 0a1.5 1.5 0 0 1-3 0v-4.5h3v4.5Zm11 0a1.5 1.5 0 0 1-3 0V4202h3v12.5Z" transform="translate(-976 -4184)" style="fill:#95e1d3;fill-rule:evenodd"/></svg>