<svg xmlns="http://www.w3.org/2000/svg" width="17.62" height="14.031"><path data-name="SHOPPING CART" d="m1501.73 40.663-2.48 5.5a.815.815 0 0 1-.7.485l-7.12.475.41 1.177h7.76a1.65 1.65 0 1 1-1.65 1.651h-7.7a1.65 1.65 0 1 1-1.65-1.651h1.49l-3.18-9.075h-1.89a.825.825 0 0 1 0-1.65h2.48a.835.835 0 0 1 .78.554l.48 1.373h12.21a.826.826 0 0 1 .83.825.941.941 0 0 1-.07.336Zm-12.39.487 1.52 4.357 7.09-.473 1.75-3.884h-10.36Z" transform="translate(-1484.19 -37.563)" style="fill:#fff;fill-rule:evenodd"/></svg>