<svg xmlns="http://www.w3.org/2000/svg" width="32" height="32"><path data-name="LINE GRAPH" d="M821.5 2341h-29a1.5 1.5 0 0 1-1.5-1.5v-29a1.5 1.5 0 0 1 1.5-1.5h29a1.5 1.5 0 0 1 1.5 1.5v29a1.5 1.5 0 0 1-1.5 1.5Zm-1.5-29h-26v26h26v-26Zm-23.785 13.24 4-2.5a1.524 1.524 0 0 1 1.625.03h.006l6.631 4.42 7.638-5.4a1.5 1.5 0 1 1 1.763 2.43l-8.5 6a1.486 1.486 0 0 1-.878.29 1.505 1.505 0 0 1-.861-.28l-6.657-4.43-3.135 1.96a1.533 1.533 0 0 1-.847.26 1.5 1.5 0 0 1-.785-2.78Z" transform="translate(-791 -2309)" style="fill:#95e1d3;fill-rule:evenodd"/></svg>