<svg xmlns="http://www.w3.org/2000/svg" width="32" height="32"><path data-name="BOOK 2" d="m422.065 2504.89-14.471 5.99a1.53 1.53 0 0 1-1.188 0l-14.471-5.99a1.5 1.5 0 0 1-.935-1.39v-23a1.5 1.5 0 0 1 1.5-1.5 1.55 1.55 0 0 1 .573.11v.01h.013l13.914 5.76 13.911-5.76h.013v-.01a1.55 1.55 0 0 1 .573-.11 1.5 1.5 0 0 1 1.5 1.5v23a1.5 1.5 0 0 1-.932 1.39ZM405.5 2487.5l-11.5-4.76v19.76l11.5 4.76v-19.76Zm14.5-4.76-11.5 4.76v19.76l11.5-4.76v-19.76Zm-9.121 6.89 5.5-2.5a1.593 1.593 0 0 1 .621-.13 1.5 1.5 0 0 1 .621 2.87l-5.5 2.5a1.6 1.6 0 0 1-.621.13 1.5 1.5 0 0 1-.621-2.87Zm0 5.5 5.5-2.5a1.593 1.593 0 0 1 .621-.13 1.5 1.5 0 0 1 .621 2.87l-5.5 2.5v-.01a1.445 1.445 0 0 1-.621.14 1.5 1.5 0 0 1-.621-2.87Zm0 5.5 5.5-2.5a1.593 1.593 0 0 1 .621-.13 1.5 1.5 0 0 1 .621 2.87l-5.5 2.5a1.6 1.6 0 0 1-.621.13 1.5 1.5 0 0 1-.621-2.87ZM397 2487a1.6 1.6 0 0 1 .621.13l5.5 2.5a1.5 1.5 0 0 1-.621 2.87 1.593 1.593 0 0 1-.621-.13l-5.5-2.5A1.5 1.5 0 0 1 397 2487Zm0 5.5a1.6 1.6 0 0 1 .621.13l5.5 2.5a1.5 1.5 0 0 1-.621 2.87 1.439 1.439 0 0 1-.621-.14v.01l-5.5-2.5a1.5 1.5 0 0 1 .621-2.87Zm0 5.5a1.6 1.6 0 0 1 .621.13l5.5 2.5a1.5 1.5 0 0 1-.621 2.87 1.593 1.593 0 0 1-.621-.13l-5.5-2.5A1.5 1.5 0 0 1 397 2498Z" transform="translate(-391 -2479)" style="fill:#95e1d3;fill-rule:evenodd"/></svg>